/vscmnt/brussel_pixiu_data/_data_brussel/112/vsc11236/PredSimResults/SUBJ10opt3D/trackIG/worker_05.mot
version=1
nRows=11
nColumns=50
inDegrees=yes
endheader
                time	         pelvis_tilt	         pelvis_list	     pelvis_rotation	           pelvis_tx	           pelvis_ty	           pelvis_tz	       hip_flexion_r	     hip_adduction_r	      hip_rotation_r	        knee_angle_r	       ankle_angle_r	         mtp_angle_r	       hip_flexion_l	     hip_adduction_l	      hip_rotation_l	        knee_angle_l	       ankle_angle_l	         mtp_angle_l	    lumbar_extension	      lumbar_bending	     lumbar_rotation	 ercspn_r/activation	 intobl_r/activation	 extobl_r/activation	    abd_r/activation	    add_r/activation	hamstrings_r/activation	bifemsh_r/activation	glut_max_r/activation	iliopsoas_r/activation	rect_fem_r/activation	  vasti_r/activation	gastroc_r/activation	 soleus_r/activation	tib_ant_r/activation	 ercspn_l/activation	 intobl_l/activation	 extobl_l/activation	    abd_l/activation	    add_l/activation	hamstrings_l/activation	bifemsh_l/activation	glut_max_l/activation	iliopsoas_l/activation	rect_fem_l/activation	  vasti_l/activation	gastroc_l/activation	 soleus_l/activation	tib_ant_l/activation	
          0.00000000	         -3.07537894	         -1.24717831	          7.72759944	          0.00000000	          0.83052417	         -0.01473428	         28.92634965	         -1.47179220	         -5.62502539	         -8.45591842	          2.36784349	          0.25012753	        -14.72943756	         -1.35553905	         -1.00302367	         -6.38850848	          9.75893499	         23.28688311	         -5.82975084	         -1.14926039	         -5.38133298	          0.11317089	          0.18211717	          0.01000094	          0.01000070	          0.13040852	          0.08057457	          0.18325885	          0.02101909	          0.08696593	          0.01000454	          0.01000133	          0.01000043	          0.01000019	          0.25825165	          0.05958534	          0.01000014	          0.01000037	          0.06354972	          0.01000104	          0.01003178	          0.19437678	          0.01000118	          0.28707112	          0.01000174	          0.01000027	          0.27582450	          0.24329190	          0.02267056	
          0.01227386	         -3.13011686	         -1.17096501	          7.76161284	          0.01443461	          0.82916074	         -0.01422290	         28.70351546	         -1.35590387	         -5.49193155	         -9.61653303	          2.20434131	          0.24811099	        -14.88932075	         -1.42601717	         -1.40645839	         -7.82797072	          9.24419110	         24.82157002	         -5.61583113	         -0.75250741	         -5.72143981	          0.09932837	          0.17067439	          0.01000087	          0.01000009	          0.16310880	          0.07133440	          0.16474304	          0.04029372	          0.07219704	          0.01000085	          0.01000014	          0.01451238	          0.01204621	          0.27409203	          0.08961040	          0.01000018	          0.01000036	          0.05275746	          0.01000657	          0.01028952	          0.16136721	          0.01204480	          0.23831987	          0.01000171	          0.01000037	          0.25225497	          0.23696896	          0.01882057	
          0.02454772	         -3.17564402	         -1.10622445	          7.75068344	          0.02919963	          0.82798705	         -0.01362135	         28.32656901	         -1.24004254	         -5.29774255	        -10.67001040	          1.91572623	          0.24372755	        -14.97111705	         -1.51754841	         -1.83891518	         -9.44927533	          8.58889959	         26.35052667	         -5.37813709	         -0.32695256	         -6.04665627	          0.09377922	          0.14171124	          0.01000070	          0.02117102	          0.13541342	          0.06603322	          0.13676637	          0.06853257	          0.05993626	          0.01000071	          0.01000028	          0.01204792	          0.01000065	          0.32938413	          0.09815551	          0.01000012	          0.01000056	          0.04379799	          0.01000109	          0.01002561	          0.13396340	          0.01000052	          0.19784762	          0.01000337	          0.01000035	          0.22069567	          0.22519362	          0.01562442	
          0.03682158	         -3.21252741	         -1.04026525	          7.68770553	          0.04412081	          0.82711922	         -0.01290088	         27.88357653	         -1.12940361	         -5.18785419	        -11.59740683	          1.50550489	          0.23488106	        -14.91227646	         -1.61770796	         -2.30208690	        -11.33775385	          7.77884918	         27.82763911	         -5.13745018	          0.10582145	         -6.34515115	          0.10524526	          0.11764531	          0.01000045	          0.06290314	          0.17639775	          0.05888407	          0.11354057	          0.07375086	          0.04975766	          0.01000077	          0.01621619	          0.01000206	          0.01000026	          0.37421841	          0.12098511	          0.01000008	          0.01000037	          0.03636005	          0.01000057	          0.01001078	          0.11121336	          0.01000020	          0.16424843	          0.01000402	          0.01000021	          0.18321632	          0.21128043	          0.01297105	
          0.04909544	         -3.23995031	         -0.97226104	          7.57707789	          0.05907997	          0.82665935	         -0.01207425	         27.42893812	         -1.02600916	         -5.17179864	        -12.52093425	          1.12479301	          0.22467156	        -14.66642077	         -1.72909382	         -2.79793779	        -13.55235938	          6.80757833	         29.16463202	         -4.90235538	          0.54166035	         -6.61097208	          0.10226484	          0.09766632	          0.01000056	          0.09224752	          0.18971614	          0.06095341	          0.09425908	          0.06386376	          0.04130763	          0.01000067	          0.03231993	          0.01000044	          0.01000033	          0.39996291	          0.13726760	          0.01000013	          0.01000035	          0.03018524	          0.01000253	          0.01254722	          0.09232680	          0.01000441	          0.13635516	          0.01000213	          0.01000079	          0.15210177	          0.19369116	          0.01076832	
          0.06136930	         -3.25873058	         -0.90999548	          7.42833492	          0.07395548	          0.82669529	         -0.01115869	         26.98497136	         -0.91849135	         -5.20275630	        -13.48402573	          0.89641565	          0.21160524	        -14.18732716	         -1.86572659	         -3.32705076	        -16.14454932	          5.68695875	         30.22191315	         -4.68069202	          0.98584362	         -6.84640050	          0.09563954	          0.08108023	          0.01000059	          0.10941703	          0.19488349	          0.06359239	          0.07825209	          0.06008753	          0.03429262	          0.01000058	          0.06375941	          0.01000050	          0.01000029	          0.40561466	          0.15281591	          0.01000019	          0.01000037	          0.02505907	          0.05843678	          0.03018058	          0.07664764	          0.01000200	          0.11319882	          0.01000111	          0.01000167	          0.12627121	          0.16980201	          0.01000019	
          0.07364315	         -3.27076228	         -0.85125073	          7.24603109	          0.08863344	          0.82731992	         -0.01017628	         26.51973097	         -0.80019854	         -5.23620871	        -14.42824405	          0.90990176	          0.19967357	        -13.43160091	         -2.03018601	         -3.91151734	        -19.15641928	          4.42848434	         30.81347464	         -4.48139127	          1.43361762	         -7.05233119	          0.08980452	          0.06731087	          0.01000063	          0.11727455	          0.20520057	          0.06672006	          0.06496348	          0.05970499	          0.02846893	          0.01000050	          0.08346765	          0.01000044	          0.01000024	          0.38655556	          0.16133435	          0.01000025	          0.01000040	          0.02080344	          0.11918114	          0.03776480	          0.06363122	          0.01000039	          0.09397499	          0.01000069	          0.01000069	          0.10482731	          0.14096564	          0.01000026	
          0.08591701	         -3.27767441	         -0.78600109	          7.03203410	          0.10303868	          0.82855722	         -0.00915254	         25.98978907	         -0.67497867	         -5.24397471	        -15.27236776	          1.18853380	          0.20603679	        -12.37123900	         -2.22229050	         -4.57186211	        -22.61414379	          3.05493479	         30.74306028	         -4.31102237	          1.87337111	         -7.22774946	          0.08461146	          0.05587987	          0.01000066	          0.11900572	          0.20872373	          0.07102140	          0.05393159	          0.05948410	          0.02363424	          0.01000044	          0.09876634	          0.01000052	          0.01000029	          0.34171914	          0.16515450	          0.01000033	          0.01000045	          0.01727053	          0.18108264	          0.04074486	          0.05282536	          0.01000030	          0.07801584	          0.01000062	          0.01000061	          0.08702510	          0.11702628	          0.01000018	
          0.09819087	         -3.28090392	         -0.70137298	          6.78604349	          0.11712673	          0.83037507	         -0.00811321	         25.35012482	         -0.55044320	         -5.20109489	        -15.92080231	          1.68441290	          0.26011200	        -10.99969954	         -2.44189492	         -5.29434714	        -26.48509173	          1.46608812	         30.01095367	         -4.17413156	          2.29174174	         -7.36969450	          0.07597390	          0.04639014	          0.01000069	          0.11397836	          0.18899291	          0.07528964	          0.04477313	          0.05679365	          0.01962061	          0.01000040	          0.11177094	          0.01000062	          0.01000033	          0.29363976	          0.16203380	          0.01000041	          0.01000054	          0.01433759	          0.23763665	          0.04684762	          0.04385479	          0.01000027	          0.06476694	          0.01000052	          0.01000028	          0.07224614	          0.09715239	          0.01000016	
          0.11046473	         -3.28175187	         -0.58272048	          6.50599894	          0.13086186	          0.83269251	         -0.00708302	         24.57133037	         -0.44012321	         -5.09308271	        -16.29291328	          2.25786980	          0.36347931	         -9.33908124	         -2.68246703	         -6.04440663	        -30.66327483	         -0.47458839	         28.68811067	         -4.07666047	          2.67448899	         -7.47414752	          0.06670951	          0.03851199	          0.01000079	          0.10863944	          0.15689847	          0.07793517	          0.03716995	          0.04715174	          0.01628859	          0.01000035	          0.11602950	          0.01000037	          0.01000022	          0.25631149	          0.15354679	          0.01000046	          0.01000071	          0.01190275	          0.25899159	          0.05776878	          0.03640842	          0.01000032	          0.05376804	          0.01000045	          0.01000017	          0.05997701	          0.08065356	          0.01000009	
          0.12273859	         -3.28064656	         -0.41985179	          6.19162085	          0.14422098	          0.83537355	         -0.00607613	         23.66429994	         -0.35916818	         -4.91665241	        -16.39042595	          2.81203326	          0.49655443	         -7.43772556	         -2.93569888	         -6.76997474	        -35.00163852	         -2.82695007	         26.80911822	         -4.02449293	          3.01026302	         -7.53810798	          0.05644171	          0.03197174	          0.01000085	          0.10400719	          0.13025367	          0.08053717	          0.03085790	          0.03914482	          0.01352244	          0.01000040	          0.10970224	          0.01000046	          0.01000028	          0.22681031	          0.16116083	          0.02523713	          0.01000056	          0.01000007	          0.21500933	          0.08915449	          0.03168450	          0.01041860	          0.04463706	          0.01000037	          0.01000009	          0.04979150	          0.06695663	          0.01862603	
